<svg width="358" height="680" viewBox="0 0 358 680" fill="none" xmlns="http://www.w3.org/2000/svg">
<rect y="140" width="358" height="540" fill="#202024"/>
<mask id="mask0_" style="mask-type:alpha" maskUnits="userSpaceOnUse" x="0" y="140" width="358" height="540">
<rect y="140" width="358" height="540" fill="#202024"/>
</mask>
<g mask="url(#mask0_)">
<circle cx="243.5" cy="166.5" r="272.5" transform="rotate(-180 243.5 166.5)" fill="url(#paint0_radial_)"/>
<circle cx="79.5" cy="166.5" r="272.5" transform="rotate(-180 79.5 166.5)" fill="url(#paint1_radial_)"/>
<path d="M358 201.492V-256.824L178.5 -360L-1 -256.824V201.492L178.5 304.674L358 201.492Z" fill="url(#paint2_linear_)"/>
<g style="mix-blend-mode:luminosity" opacity="0.4">
<path d="M0.800787 99.3496V202.159L90.1006 253.569L179.4 202.159V99.3496L90.1006 47.9399L0.800787 99.3496Z" fill="url(#paint3_linear_)"/>
<path d="M0.800786 -3.46504V99.3445L90.1006 150.754L179.4 99.3445V-3.46504L90.1006 -54.8747L0.800786 -3.46504Z" fill="url(#paint4_linear_)"/>
<path d="M179.4 202.159V99.3493L268.7 47.9396L358 99.3493V202.159L268.7 253.568L179.4 202.159Z" fill="url(#paint5_linear_)"/>
<path d="M358 -3.46504V99.3445L268.7 150.754L179.4 99.3445V-3.46504L268.7 -54.8747L358 -3.46504Z" fill="url(#paint6_linear_)"/>
<path d="M268.7 253.59V150.781L179.4 99.3711L90.1006 150.781L90.1006 253.59L179.4 305L268.7 253.59Z" fill="url(#paint7_linear_)"/>
</g>
</g>
<rect x="139" y="156" width="80" height="8" fill="#121214"/>
<rect x="147" width="64" height="158" fill="url(#paint8_linear_)"/>
<defs>
<radialGradient id="paint0_radial_" cx="0" cy="0" r="1" gradientUnits="userSpaceOnUse" gradientTransform="translate(243.5 166.5) rotate(90) scale(272.5)">
<stop stop-color="#FF9900"/>
<stop offset="1" stop-color="#121214" stop-opacity="0"/>
</radialGradient>
<radialGradient id="paint1_radial_" cx="0" cy="0" r="1" gradientUnits="userSpaceOnUse" gradientTransform="translate(79.5 166.5) rotate(90) scale(272.5)">
<stop stop-color="#FF7A00"/>
<stop offset="1" stop-color="#121214" stop-opacity="0"/>
</radialGradient>
<linearGradient id="paint2_linear_" x1="-66" y1="97" x2="416.5" y2="263" gradientUnits="userSpaceOnUse">
<stop stop-color="#FF9900"/>
<stop offset="1" stop-color="#FF2B1E"/>
</linearGradient>
<linearGradient id="paint3_linear_" x1="90.1006" y1="248.84" x2="1.1853" y2="97.1039" gradientUnits="userSpaceOnUse">
<stop stop-color="#3423F9"/>
<stop offset="1" stop-color="#4F002C" stop-opacity="0"/>
</linearGradient>
<linearGradient id="paint4_linear_" x1="90.1006" y1="146.026" x2="1.18528" y2="-5.71072" gradientUnits="userSpaceOnUse">
<stop stop-color="#3423F9"/>
<stop offset="1" stop-color="#4F002C" stop-opacity="0"/>
</linearGradient>
<linearGradient id="paint5_linear_" x1="358" y1="207.937" x2="179.676" y2="100.328" gradientUnits="userSpaceOnUse">
<stop stop-color="#CF4D30" stop-opacity="0"/>
<stop offset="1" stop-color="#FFC062"/>
</linearGradient>
<linearGradient id="paint6_linear_" x1="268.7" y1="146.026" x2="357.615" y2="-5.71072" gradientUnits="userSpaceOnUse">
<stop stop-color="#3423F9"/>
<stop offset="1" stop-color="#4F002C" stop-opacity="0"/>
</linearGradient>
<linearGradient id="paint7_linear_" x1="179.4" y1="104.099" x2="268.316" y2="255.836" gradientUnits="userSpaceOnUse">
<stop stop-color="#3423F9"/>
<stop offset="1" stop-color="#4F002C" stop-opacity="0"/>
</linearGradient>
<linearGradient id="paint8_linear_" x1="108.5" y1="4.93019e-08" x2="241" y2="158" gradientUnits="userSpaceOnUse">
<stop stop-color="#FF0000"/>
<stop offset="1" stop-color="#FFCD1E"/>
</linearGradient>
</defs>
</svg>
